<svg width="44" height="44" viewBox="0 0 44 44" fill="none" xmlns="http://www.w3.org/2000/svg">
<path d="M22.0003 3.6665C32.1255 3.6665 40.3337 11.8746 40.3337 21.9998C40.3337 32.125 32.1255 40.3332 22.0003 40.3332C11.8751 40.3332 3.66699 32.125 3.66699 21.9998C3.66699 11.8746 11.8751 3.6665 22.0003 3.6665ZM29.3415 23.609C28.7083 22.6476 28.2514 21.9533 26.5144 22.2286C23.2318 22.7497 22.8679 23.3242 22.7111 24.2686L22.6669 24.5561L22.6224 24.8593C22.4433 26.1116 22.45 26.5854 23.025 27.1896C25.3445 29.6232 26.734 31.3773 27.1549 32.4033C27.3604 32.9052 27.8888 34.4209 27.5253 35.9198C29.7685 35.0286 31.7456 33.6107 33.3034 31.819C33.5054 31.1337 33.6513 30.2803 33.6513 29.2448V29.053C33.6513 27.3618 33.6513 26.5905 32.456 25.9074C31.9517 25.6209 31.5753 25.4483 31.2737 25.3116C30.6005 25.0054 30.1548 24.8043 29.5533 23.9247C29.4816 23.82 29.4116 23.7155 29.3415 23.609ZM22.0003 7.02761C17.7517 7.02761 13.9165 8.79723 11.1914 11.6396C11.5158 11.8649 11.7985 12.1815 11.9927 12.6179C12.3667 13.457 12.3667 14.3204 12.3667 15.0838C12.3659 15.6862 12.3651 16.2564 12.5585 16.6704C12.8234 17.2356 13.9637 17.4757 14.9704 17.6867C15.33 17.7624 15.7009 17.8397 16.0383 17.9331C16.9661 18.1908 17.6838 19.0234 18.2592 19.692C18.4979 19.9705 18.8505 20.3797 19.0272 20.4813C19.1194 20.4151 19.4153 20.0946 19.5618 19.5679C19.6733 19.1668 19.6416 18.8093 19.4775 18.6161C18.4525 17.4063 18.5082 15.0757 18.825 14.2172C19.324 12.8626 20.8829 12.9626 22.0223 13.0366C22.4473 13.064 22.8484 13.0903 23.1474 13.0527C24.2887 12.9095 24.6396 11.1747 24.8878 10.8348C25.4233 10.1012 27.0616 8.99619 28.0793 8.31316C26.2216 7.48684 24.1646 7.02761 22.0003 7.02761Z" fill="#595A28"/>
</svg>
