<svg width="44" height="44" viewBox="0 0 44 44" fill="none" xmlns="http://www.w3.org/2000/svg">
<path d="M22.0092 3.6665C28.0843 3.6665 33.0092 8.59137 33.0092 14.6665V16.4998H40.3425V20.1665H38.203L36.8159 36.8187C36.7367 37.7689 35.9423 38.4998 34.9888 38.4998H9.02937C8.07587 38.4998 7.28154 37.7689 7.20236 36.8187L5.81345 20.1665H3.67578V16.4998H11.0091V14.6665C11.0091 8.59137 15.934 3.6665 22.0092 3.6665ZM34.5235 20.1665H9.49295L10.7158 34.8332H33.3007L34.5235 20.1665ZM23.8425 23.8332V31.1665H20.1758V23.8332H23.8425ZM16.5091 23.8332V31.1665H12.8424V23.8332H16.5091ZM31.1758 23.8332V31.1665H27.5092V23.8332H31.1758ZM22.0092 7.33317C18.0818 7.33317 14.8755 10.4204 14.6848 14.3005L14.6758 14.6665V16.4998H29.3425V14.6665C29.3425 10.7391 26.2552 7.53286 22.3751 7.34215L22.0092 7.33317Z" fill="#595A28"/>
</svg>
