<svg width="36" height="33" viewBox="0 0 36 33" fill="none" xmlns="http://www.w3.org/2000/svg">
<path d="M0 2C0 0.895431 0.895431 0 2 0H34C35.1046 0 36 0.895431 36 2V2.125C36 3.22957 35.1046 4.125 34 4.125H2C0.895431 4.125 0 3.22957 0 2.125V2ZM0 16.4375C0 15.3329 0.895431 14.4375 2 14.4375H34C35.1046 14.4375 36 15.3329 36 16.4375V16.5625C36 17.6671 35.1046 18.5625 34 18.5625H2C0.895431 18.5625 0 17.6671 0 16.5625V16.4375ZM0 30.875C0 29.7704 0.895431 28.875 2 28.875H34C35.1046 28.875 36 29.7704 36 30.875V31C36 32.1046 35.1046 33 34 33H2C0.895431 33 0 32.1046 0 31V30.875Z" fill="#595A28"/>
</svg>
