<svg width="29" height="38" viewBox="0 0 29 38" fill="none" xmlns="http://www.w3.org/2000/svg">
<path d="M0 37.776C0 29.9681 6.49187 23.6387 14.5 23.6387C22.5082 23.6387 29 29.9681 29 37.776H25.375C25.375 31.9201 20.5061 27.173 14.5 27.173C8.4939 27.173 3.625 31.9201 3.625 37.776H0ZM14.5 21.8715C8.49156 21.8715 3.625 17.1267 3.625 11.2685C3.625 5.41037 8.49156 0.665527 14.5 0.665527C20.5084 0.665527 25.375 5.41037 25.375 11.2685C25.375 17.1267 20.5084 21.8715 14.5 21.8715ZM14.5 18.3372C18.5056 18.3372 21.75 15.174 21.75 11.2685C21.75 7.36308 18.5056 4.19986 14.5 4.19986C10.4944 4.19986 7.25 7.36308 7.25 11.2685C7.25 15.174 10.4944 18.3372 14.5 18.3372Z" fill="#595A28"/>
</svg>
